<svg width="61" height="61" xmlns="http://www.w3.org/2000/svg" xmlns:xlink="http://www.w3.org/1999/xlink" overflow="hidden"><defs><clipPath id="clip0"><rect x="677" y="282" width="61" height="61"/></clipPath></defs><g clip-path="url(#clip0)" transform="translate(-677 -282)"><rect x="678.5" y="283.5" width="59" height="59" stroke="#3B3B38" stroke-width="1.33333" stroke-miterlimit="8" fill="#FFFFFF"/><path d="M702.515 284.257 693.828 291.065 690.252 296.865 689.741 301.404 692.296 305.187 701.493 310.483 707.113 314.517 712.989 319.561 713.5 323.091 711.712 328.387 705.836 334.691 696.383 341.5 678.5 341.248C678.67 321.999 678.841 302.749 679.011 283.5L702.515 284.257Z" stroke="#83BEEC" stroke-width="1.33333" stroke-miterlimit="8" fill="#83BEEC" fill-rule="evenodd"/><path d="M737.5 291.5 701.5 311.597 712.829 320.5 737.248 306.509C737.164 301.506 737.081 296.503 737.5 291.5Z" stroke="#3B3B38" stroke-width="1.33333" stroke-miterlimit="8" fill="#C8C6C4" fill-rule="evenodd"/><path d="M702.497 284.5C695.737 290.171 688.977 295.842 690.802 302.077 692.627 308.313 712.451 315.344 713.446 321.914 714.442 328.485 701.336 339.324 696.774 341.5" stroke="#0062B1" stroke-width="3" stroke-linecap="round" stroke-miterlimit="8" fill="none" fill-rule="evenodd"/><rect x="678.5" y="283.5" width="59" height="59" stroke="#3B3B38" stroke-width="1.33333" stroke-miterlimit="8" fill="none"/><path d="M724.5 314.421 737.009 331.5C737.173 323.167 737.336 314.833 737.5 306.5L724.5 314.421Z" stroke="#3B3B38" stroke-width="1.33333" stroke-miterlimit="8" fill="#F2F2F2" fill-rule="evenodd"/><path d="M716 331C716 327.686 718.686 325 722 325 725.314 325 728 327.686 728 331 728 334.314 725.314 337 722 337 718.686 337 716 334.314 716 331Z" stroke="#DD6700" stroke-width="2" stroke-miterlimit="8" fill="#F8DB8F" fill-rule="evenodd"/><path d="M684.5 311.507 688.966 305.961 687.372 299.046 694.534 299.046 699 293.5 703.466 299.046 710.628 299.046 709.034 305.961 713.5 311.507 707.047 314.585 705.453 321.5 699 318.423 692.547 321.5 690.953 314.585Z" stroke="#DD6700" stroke-width="3" stroke-miterlimit="8" fill="#F8DB8F" fill-rule="evenodd"/></g></svg>